# xmcd CD database file
#
# Track frame offsets:
#	150
#	18410
#	35086
#	60116
#
# Disc length: 829 seconds
#
# Revision: 0
# Processed by: cddbd v1.5PL3 Copyright (c) Steve Scherf et al.
# Submitted via: CDex 1.51
#
DISCID=27033b04
DTITLE=M-FLO Loves BoA - The Love Bug (EP)
DYEAR=2004
DGENRE=Pop
TTITLE0=The Love Bug
TTITLE1=The Love Bug (Big Bug NYC Remix)
TTITLE2=The Love Bug (Coverd By BAGDAD CAFE THE TRENCH TOWN
TTITLE3=Bonus Track
EXTD=YEAR: 2004
EXTT0=
EXTT1=
EXTT2=
EXTT3=
PLAYORDER=
